<?xml version="1.0" encoding="UTF-8" standalone="no"?>
<!DOCTYPE svg PUBLIC "-//W3C//DTD SVG 1.1//EN" "http://www.w3.org/Graphics/SVG/1.1/DTD/svg11.dtd">
<svg version="1.1" xmlns="http://www.w3.org/2000/svg" xmlns:xlink="http://www.w3.org/1999/xlink" preserveAspectRatio="xMidYMid meet" viewBox="0 0 640 640" width="24" height="24"><defs><path d="M179.84 43.7L134.72 88.82L210.88 164.98C112 263.86 57.07 318.79 46.08 329.78C27.2 348.66 27.2 379.06 46.08 397.62C63.68 415.22 204.48 556.02 222.08 573.62C231.36 582.9 243.84 587.7 256 587.7C268.16 587.7 280.64 582.9 289.92 573.62C307.52 556.02 448.32 415.22 465.92 397.62C484.8 379.06 484.8 348.66 465.92 329.78C427.78 291.63 332.42 196.27 179.84 43.7ZM256 210.42L409.28 363.7L102.72 363.7L256 210.42ZM480 523.7C480 558.9 508.8 587.7 544 587.7C579.2 587.7 608 558.9 608 523.7C608 481.14 544 411.7 544 411.7C531.2 434.1 480 481.14 480 523.7ZM640 683.7L640 811.7L0 811.7L0 683.7L640 683.7Z" id="a1m8YezlJ"></path></defs><g><g><g><use xlink:href="#a1m8YezlJ" opacity="1" fill="#000000" fill-opacity="1"></use><g><use xlink:href="#a1m8YezlJ" opacity="1" fill-opacity="0" stroke="#000000" stroke-width="1" stroke-opacity="0"></use></g></g></g></g></svg>